<?xml version="1.0" encoding="UTF-8" standalone="no"?>
<!DOCTYPE svg PUBLIC "-//W3C//DTD SVG 1.1//EN" "http://www.w3.org/Graphics/SVG/1.1/DTD/svg11.dtd">
<svg width="100%" height="100%" viewBox="0 0 814 207" version="1.1" xmlns="http://www.w3.org/2000/svg" xmlns:xlink="http://www.w3.org/1999/xlink" xml:space="preserve" xmlns:serif="http://www.serif.com/" style="fill-rule:evenodd;clip-rule:evenodd;stroke-linejoin:round;stroke-miterlimit:2;">
    <g transform="matrix(4.16667,0,0,4.16667,-156.882,-2.91094)">
        <path d="M222.924,48.692C222.488,48.692 222.063,48.696 221.643,48.701C221.659,48.172 221.827,44.386 221.692,43.064C221.555,41.733 221.692,41.466 221.897,40.802C222.097,40.139 223.08,38.476 223.08,38.476C223.08,38.476 223.991,40.871 224.53,41.933C225.07,42.996 225.882,45.459 226.287,45.988C226.693,46.519 227.05,48.55 227.257,48.721C227.31,48.766 227.313,48.766 227.343,48.791C226.001,48.73 224.503,48.692 222.924,48.692ZM225.733,31.872C225.934,31.073 226.072,31.474 226.272,31.805C226.478,32.138 226.88,32.805 226.88,32.938C226.88,33.072 226.139,33.467 225.797,33.667C225.797,33.667 225.528,32.672 225.733,31.872ZM229.352,48.909C229.234,48.726 229.115,48.567 229.115,48.567C229.115,48.567 229.328,48.591 229.292,48.27C229.292,48.263 228.902,46.614 228.654,45.792C228.249,44.46 227.437,43.064 226.962,41.269C226.487,39.471 226.196,38.102 226.287,37.676C226.298,37.629 226.892,37.478 226.892,37.478L226.32,35.451C226.32,35.451 228.043,34.552 228.249,33.553C228.448,32.554 228.159,31.725 227.807,31.091C227.404,30.362 226.828,29.033 226.287,28.368C225.747,27.705 224.464,27.969 224.057,27.435C223.652,26.906 223.925,26.636 224.057,26.105C224.194,25.576 224.194,25.175 224.194,25.175L224.602,24.909C224.602,24.909 224.262,23.813 222.841,23.746C221.423,23.68 221.071,24.177 221.071,24.177L221.219,24.909L220.817,25.242L221.285,25.508C221.285,25.508 220.95,26.97 221.358,27.105C221.784,27.247 221.963,27.236 221.963,27.236L222.028,27.638C222.028,27.638 220.124,27.955 219.852,28.219C219.583,28.488 219.531,28.764 219.397,29.765C219.262,30.762 218.923,32.619 218.248,33.488C217.573,34.353 217.639,34.552 217.639,34.552C217.639,34.552 217.301,36.88 217.84,37.279C218.384,37.676 218.686,37.557 218.653,37.543C218.384,37.066 218.857,36.347 218.857,36.347L219.867,37.015C219.867,37.015 219.328,41.899 219.262,43.496C219.205,44.877 219.706,46.891 219.954,48.148C219.976,48.258 219.047,48.32 218.868,48.777C215.444,48.923 213.1,49.237 213.1,49.524C213.1,49.917 217.556,50.233 223.049,50.233C228.544,50.233 232.996,49.917 232.996,49.524C232.996,49.306 231.567,49.073 229.352,48.909ZM192.59,44.41C192.59,45.519 158.333,46.415 116.073,46.415C73.809,46.415 39.553,45.519 39.553,44.41C39.553,43.303 73.809,42.405 116.073,42.405C158.333,42.405 192.59,43.303 192.59,44.41ZM190.059,27.812C189.171,27.625 188.138,27.442 186.955,27.264L186.955,3.67C188.122,3.697 189.175,3.718 190.059,3.743L190.059,27.812ZM186.005,27.13C181.943,26.579 176.275,26.172 168.626,26.311C168.07,26.322 167.414,26.322 166.685,26.317L166.685,3.334C174.506,3.421 181.225,3.545 186.005,3.649L186.005,27.13ZM165.74,26.311C164.658,26.296 163.434,26.275 162.089,26.253L162.089,3.287C163.327,3.297 164.547,3.308 165.74,3.323L165.74,26.311ZM161.146,26.237C156.752,26.161 151.261,26.075 145.471,26.181C145.248,26.187 145.022,26.191 144.799,26.197L144.799,25.732C145.595,25.401 146.121,25.128 146.149,24.983C146.2,24.712 145.659,24.381 144.799,24.059L144.799,17.522C145.115,17.36 145.321,17.226 145.34,17.133C145.369,16.965 145.172,16.77 144.799,16.566L144.799,3.222C150.467,3.215 155.979,3.237 161.146,3.28L161.146,26.237ZM143.852,16.163C142.729,15.763 141.114,15.388 139.572,15.205L139.572,3.238C141.009,3.228 142.434,3.226 143.852,3.225L143.852,16.163ZM143.852,23.75C142.661,23.404 141.173,23.108 139.798,22.987C139.736,22.983 139.655,22.98 139.572,22.973L139.572,19.396C141.224,18.9 142.774,18.377 143.852,17.94L143.852,23.75ZM143.852,26.212C143.742,26.216 143.632,26.216 143.521,26.218C143.632,26.178 143.747,26.137 143.852,26.098L143.852,26.212ZM138.63,15.119C137.4,15.082 134.539,15.19 131.059,15.365C131.743,15.074 132.217,14.4 132.217,13.623C132.217,12.569 131.353,11.718 130.285,11.718C129.748,11.718 129.261,11.936 128.91,12.284L128.92,12.191L127.658,13.368L127.231,13.368L127.231,8.189L129.757,3.332C132.716,3.291 135.682,3.263 138.63,3.244L138.63,15.119ZM138.63,22.96C137.347,22.967 135.32,23.043 132.908,23.162L132.908,20.947C134.325,20.792 136.49,20.282 138.63,19.672L138.63,22.96ZM132.234,34.265L123.451,34.265L123.451,29.501C126.319,29.477 129.264,29.466 132.234,29.463L132.234,34.265ZM122.506,34.265L117.423,34.265L122.459,29.508L122.506,29.508L122.506,34.265ZM117.1,29.664C117.949,29.627 118.842,29.584 119.754,29.544C120.325,29.532 120.898,29.528 121.476,29.52L117.1,33.655L117.1,29.664ZM116.154,34.265L113.989,34.265L113.989,29.776C114.645,29.758 115.375,29.734 116.154,29.703L116.154,34.265ZM113.045,16.467C111.831,16.549 110.852,16.618 110.213,16.67L105.271,4.072C107.749,3.944 110.342,3.829 113.045,3.732L113.045,16.467ZM113.045,22.579C112.893,22.532 112.718,22.503 112.499,22.487L112.285,21.952C112.525,21.95 112.776,21.944 113.045,21.932L113.045,22.579ZM113.045,34.265L106.154,34.265L106.154,29.872C106.26,29.867 106.361,29.864 106.469,29.858C107.751,29.807 109.109,29.762 110.524,29.72C110.653,29.742 110.775,29.754 110.885,29.769C111.204,29.816 111.983,29.821 113.045,29.799L113.045,34.265ZM105.21,34.265L100.412,34.265L105.015,29.918C105.078,29.915 105.143,29.913 105.21,29.91L105.21,34.265ZM100.571,27.408C100.086,27.423 99.606,27.442 99.127,27.459L99.127,19.077L103.58,19.921C104.326,21.318 108.332,21.679 110.074,21.921C110.337,21.96 110.909,21.971 111.694,21.962L111.904,22.497C111.86,22.498 111.831,22.497 111.785,22.498C109.621,22.675 107.469,24.951 104.281,25.325C101.741,25.62 100.827,26.731 100.571,27.408ZM99.127,4.42C100.911,4.307 102.765,4.203 104.686,4.102L109.633,16.716C109.525,16.723 109.445,16.731 109.398,16.736C108.33,16.854 104.489,17.997 103.624,19.083L99.127,17.227L99.127,4.42ZM113.989,21.906C115.996,21.837 118.517,21.72 121.063,21.591L121.063,23.84C120.571,23.866 120.088,23.9 119.609,23.93C119.143,23.042 118.209,22.423 117.118,22.423C116.273,22.423 115.961,23.251 114.747,23.251C114.401,23.251 114.18,23.172 113.989,23.07L113.989,21.906ZM113.989,3.697C116.269,3.615 118.629,3.545 121.063,3.489L121.063,15.94C118.452,16.105 115.987,16.266 113.989,16.402L113.989,3.697ZM122.01,21.542C122.6,21.51 123.188,21.479 123.764,21.447L123.764,23.671C123.178,23.705 122.591,23.742 122.01,23.777L122.01,21.542ZM124.547,13.368L126.287,10.01L126.287,13.368L124.547,13.368ZM126.287,21.31L126.287,23.523C125.761,23.55 125.237,23.58 124.71,23.615L124.71,21.397C125.248,21.37 125.778,21.34 126.287,21.31ZM125.394,15.484L124.589,13.914L126.287,13.914L126.287,14.647L125.394,15.484ZM122.01,3.467C122.442,3.454 125.294,3.397 126.287,3.383L126.287,8.815L123.924,13.368L123.81,13.368L123.81,13.914L123.967,13.914L124.886,15.708C123.926,15.766 122.962,15.822 122.01,15.881L122.01,3.467ZM131.961,21.011L131.961,23.208C131.15,23.248 130.296,23.295 129.422,23.343L128.326,21.201C129.873,21.119 131.157,21.049 131.961,21.011ZM129.188,13.368C129.308,12.872 129.744,12.49 130.285,12.49C130.923,12.49 131.434,12.998 131.434,13.623C131.434,14.243 130.923,14.752 130.285,14.752C129.757,14.752 129.33,14.392 129.198,13.914L130.519,13.914L130.519,13.368L129.188,13.368ZM127.231,21.26C127.397,21.251 127.563,21.243 127.72,21.232L128.82,23.375C128.295,23.404 127.77,23.432 127.231,23.467L127.231,21.26ZM127.231,3.371C127.863,3.356 128.498,3.349 129.128,3.34L127.231,6.991L127.231,3.371ZM96.83,16.285L93.318,14.837L93.318,4.819C94.454,4.733 95.63,4.649 96.83,4.572L96.83,16.285ZM96.83,27.542C95.641,27.584 94.472,27.632 93.318,27.673L93.318,17.974L96.83,18.64L96.83,27.542ZM91.022,13.886C90.941,13.877 90.873,13.864 90.789,13.864C89.829,13.864 89.036,14.555 88.889,15.459L85.885,15.416L85.885,10.443L88.618,5.187C89.397,5.126 90.201,5.056 91.022,4.994L91.022,13.886ZM91.022,15.494L89.703,15.473C89.837,14.995 90.263,14.635 90.789,14.635C90.875,14.635 90.941,14.668 91.022,14.683L91.022,15.494ZM91.022,16.851C90.941,16.867 90.875,16.896 90.789,16.896C90.247,16.896 89.816,16.521 89.695,16.019L91.022,16.041L91.022,16.851ZM91.022,27.764C90.345,27.79 89.399,27.79 89.399,27.79L85.885,21.005L85.885,15.962L88.879,16.008C89.003,16.945 89.96,17.589 91.022,17.65L91.022,27.764ZM85.885,27.977L85.885,22.214L88.779,27.855C87.792,27.894 86.832,27.936 85.885,27.977ZM84.945,11.064L82.469,15.864L84.945,20.369L84.945,28.017C82.666,28.118 80.535,28.217 78.591,28.314L78.591,6.13C80.521,5.931 82.636,5.719 84.945,5.511L84.945,11.064ZM84.945,15.397L83.326,15.373L84.945,12.263L84.945,15.397ZM84.945,19.159L83.281,15.922L84.945,15.946L84.945,19.159ZM77.645,28.363C74.304,28.536 71.538,28.704 69.563,28.86C68.908,28.91 68.169,28.974 67.377,29.046L67.377,7.369C69.763,7.119 73.174,6.705 77.645,6.233L77.645,28.363ZM66.429,29.133C64.464,29.318 62.195,29.545 59.813,29.803L59.813,8.08C61.78,7.856 63.647,7.665 65.213,7.558C65.574,7.535 65.98,7.503 66.429,7.459L66.429,29.133ZM58.867,29.905C55.151,30.31 51.244,30.781 47.83,31.251L47.83,9.486C50.862,9.191 55,8.642 58.867,8.186L58.867,29.905ZM85.885,5.423C86.564,5.365 87.261,5.304 87.965,5.242L85.885,9.244L85.885,5.423ZM46.881,31.382C44.241,31.753 41.961,32.123 40.399,32.455L40.399,9.587C41.935,9.663 43.8,9.729 45.083,9.688C45.596,9.672 46.203,9.63 46.881,9.574L46.881,31.382ZM191.006,3.766C192.743,3.809 193.709,3.837 193.709,3.837C193.709,3.837 191.817,1.174 185.872,0.91C173.421,0.352 126.016,1.046 111.831,1.306C97.643,1.574 59.813,6.098 53.596,6.764C47.378,7.427 37.518,8.624 37.653,9.422C37.653,9.422 38.4,9.475 39.457,9.536L39.457,32.673C38.649,32.88 38.182,33.068 38.193,33.228C38.269,34.465 43.956,33.937 47.74,33.758C51.522,33.582 54.404,33.405 61.613,32.516C66.992,31.855 77.102,31.195 91.022,30.534L91.022,33.066L93.318,33.066L93.318,30.425C94.465,30.372 95.635,30.316 96.83,30.268L96.83,32.665L99.127,32.665L99.127,30.166C100.711,30.095 102.34,30.028 103.999,29.957L99.442,34.265L95.076,34.265L95.076,35.194L134.124,35.194L134.124,34.265L133.175,34.265L133.175,29.463C152.964,29.46 173.357,29.858 176.007,29.858C179.97,29.858 194.745,29.148 194.745,29.148C194.745,29.148 193.639,28.619 191.006,28.012L191.006,3.766Z" style="fill:rgb(208,162,83);fill-rule:nonzero;"/>
    </g>
</svg>
