<svg version="1.1" viewBox="0.0 0.0 960.0 540.0" fill="none" stroke="none" stroke-linecap="square" stroke-miterlimit="10" xmlns:xlink="http://www.w3.org/1999/xlink" xmlns="http://www.w3.org/2000/svg"><clipPath id="p.0"><path d="m0 0l960.0 0l0 540.0l-960.0 0l0 -540.0z" clip-rule="nonzero"/></clipPath><g clip-path="url(#p.0)"><path fill="#ffffff" d="m0 0l960.0 0l0 540.0l-960.0 0z" fill-rule="evenodd"/><path fill="#eeeeee" d="m170.88452 50.288715l0 0c0 -9.79327 7.9390106 -17.732285 17.73227 -17.732285l0 0c4.702896 0 9.213181 1.8682175 12.53862 5.1936646c3.3254547 3.325447 5.1936646 7.835724 5.1936646 12.53862l0 0c0 9.79327 -7.9390106 17.73228 -17.732285 17.73228l0 0c-9.793259 0 -17.73227 -7.9390106 -17.73227 -17.73228z" fill-rule="evenodd"/><path stroke="#595959" stroke-width="1.0" stroke-linejoin="round" stroke-linecap="butt" d="m170.88452 50.288715l0 0c0 -9.79327 7.9390106 -17.732285 17.73227 -17.732285l0 0c4.702896 0 9.213181 1.8682175 12.53862 5.1936646c3.3254547 3.325447 5.1936646 7.835724 5.1936646 12.53862l0 0c0 9.79327 -7.9390106 17.73228 -17.732285 17.73228l0 0c-9.793259 0 -17.73227 -7.9390106 -17.73227 -17.73228z" fill-rule="evenodd"/><path fill="#000000" d="m186.16331 57.208714l-1.515625 0l0 -13.359375l1.640625 0l0 4.765625q1.046875 -1.296875 2.65625 -1.296875q0.890625 0 1.6875 0.359375q0.796875 0.359375 1.3125 1.015625q0.515625 0.640625 0.796875 1.5625q0.296875 0.921875 0.296875 1.96875q0 2.484375 -1.234375 3.84375q-1.21875 1.359375 -2.953125 1.359375q-1.703125 0 -2.6875 -1.4375l0 1.21875zm-0.015625 -4.90625q0 1.734375 0.484375 2.515625q0.765625 1.265625 2.09375 1.265625q1.078125 0 1.859375 -0.9375q0.78125 -0.9375 0.78125 -2.78125q0 -1.890625 -0.75 -2.796875q-0.75 -0.90625 -1.828125 -0.90625q-1.0625 0 -1.859375 0.9375q-0.78125 0.9375 -0.78125 2.703125z" fill-rule="nonzero"/><path fill="#eeeeee" d="m170.88452 118.45145l0 0c0 -9.793274 7.9390106 -17.732285 17.73227 -17.732285l0 0c4.702896 0 9.213181 1.8682175 12.53862 5.1936646c3.3254547 3.325447 5.1936646 7.835724 5.1936646 12.53862l0 0c0 9.793274 -7.9390106 17.732285 -17.732285 17.732285l0 0c-9.793259 0 -17.73227 -7.9390106 -17.73227 -17.732285z" fill-rule="evenodd"/><path stroke="#595959" stroke-width="1.0" stroke-linejoin="round" stroke-linecap="butt" d="m170.88452 118.45145l0 0c0 -9.793274 7.9390106 -17.732285 17.73227 -17.732285l0 0c4.702896 0 9.213181 1.8682175 12.53862 5.1936646c3.3254547 3.325447 5.1936646 7.835724 5.1936646 12.53862l0 0c0 9.793274 -7.9390106 17.732285 -17.732285 17.732285l0 0c-9.793259 0 -17.73227 -7.9390106 -17.73227 -17.732285z" fill-rule="evenodd"/><path fill="#000000" d="m190.97581 124.183945q-0.921875 0.765625 -1.765625 1.09375q-0.828125 0.3125 -1.796875 0.3125q-1.59375 0 -2.453125 -0.78125q-0.859375 -0.78125 -0.859375 -1.984375q0 -0.71875 0.328125 -1.296875q0.328125 -0.59375 0.84375 -0.9375q0.53125 -0.359375 1.1875 -0.546875q0.46875 -0.125 1.453125 -0.25q1.984375 -0.234375 2.921875 -0.5625q0.015625 -0.34375 0.015625 -0.421875q0 -1.0 -0.46875 -1.421875q-0.625 -0.546875 -1.875 -0.546875q-1.15625 0 -1.703125 0.40625q-0.546875 0.40625 -0.8125 1.421875l-1.609375 -0.21875q0.21875 -1.015625 0.71875 -1.640625q0.5 -0.640625 1.453125 -0.984375q0.953125 -0.34375 2.1875 -0.34375q1.25 0 2.015625 0.296875q0.78125 0.28125 1.140625 0.734375q0.375 0.4375 0.515625 1.109375q0.078125 0.421875 0.078125 1.515625l0 2.1875q0 2.28125 0.109375 2.890625q0.109375 0.59375 0.40625 1.15625l-1.703125 0q-0.265625 -0.515625 -0.328125 -1.1875zm-0.140625 -3.671875q-0.890625 0.375 -2.671875 0.625q-1.015625 0.140625 -1.4375 0.328125q-0.421875 0.1875 -0.65625 0.53125q-0.21875 0.34375 -0.21875 0.78125q0 0.65625 0.5 1.09375q0.5 0.4375 1.453125 0.4375q0.9375 0 1.671875 -0.40625q0.75 -0.421875 1.09375 -1.140625q0.265625 -0.5625 0.265625 -1.640625l0 -0.609375z" fill-rule="nonzero"/><path fill="#000000" fill-opacity="0.0" d="m188.61679 68.020996l0 32.692917" fill-rule="evenodd"/><path stroke="#595959" stroke-width="1.0" stroke-linejoin="round" stroke-linecap="butt" d="m188.61679 68.020996l0 32.692917" fill-rule="evenodd"/><path fill="#b6d7a8" d="m42.787403 38.467308l0 0c0 -3.2644882 2.646389 -5.910877 5.910877 -5.910877l80.33572 0c1.5676727 0 3.0711212 0.6227493 4.1796265 1.7312546c1.1085052 1.1085052 1.7312622 2.6119614 1.7312622 4.1796227l0 23.64281c0 3.2644844 -2.6463928 5.910877 -5.9108887 5.910877l-80.33572 0l0 0c-3.2644882 0 -5.910877 -2.6463928 -5.910877 -5.910877z" fill-rule="evenodd"/><path stroke="#595959" stroke-width="1.0" stroke-linejoin="round" stroke-linecap="butt" d="m42.787403 38.467308l0 0c0 -3.2644882 2.646389 -5.910877 5.910877 -5.910877l80.33572 0c1.5676727 0 3.0711212 0.6227493 4.1796265 1.7312546c1.1085052 1.1085052 1.7312622 2.6119614 1.7312622 4.1796227l0 23.64281c0 3.2644844 -2.6463928 5.910877 -5.9108887 5.910877l-80.33572 0l0 0c-3.2644882 0 -5.910877 -2.6463928 -5.910877 -5.910877z" fill-rule="evenodd"/><path fill="#000000" d="m72.187035 57.20871l-2.96875 -9.671875l1.703125 0l1.53125 5.578125l0.578125 2.078125q0.046875 -0.15625 0.5 -2.0l1.546875 -5.65625l1.6875 0l1.4375 5.609375l0.484375 1.84375l0.5625 -1.859375l1.65625 -5.59375l1.59375 0l-3.03125 9.671875l-1.703125 0l-1.53125 -5.796875l-0.375 -1.640625l-1.953125 7.4375l-1.71875 0zm11.082321 -4.84375q0 -2.6875 1.484375 -3.96875q1.25 -1.078125 3.046875 -1.078125q2.0 0 3.265625 1.3125q1.265625 1.296875 1.265625 3.609375q0 1.859375 -0.5625 2.9375q-0.5625 1.0625 -1.640625 1.65625q-1.0625 0.59375 -2.328125 0.59375q-2.03125 0 -3.28125 -1.296875q-1.25 -1.3125 -1.25 -3.765625zm1.6875 0q0 1.859375 0.796875 2.796875q0.8125 0.921875 2.046875 0.921875q1.21875 0 2.03125 -0.921875q0.8125 -0.9375 0.8125 -2.84375q0 -1.796875 -0.8125 -2.71875q-0.8125 -0.921875 -2.03125 -0.921875q-1.234375 0 -2.046875 0.921875q-0.796875 0.90625 -0.796875 2.765625zm9.281967 4.84375l0 -9.671875l1.46875 0l0 1.46875q0.5625 -1.03125 1.03125 -1.359375q0.484375 -0.328125 1.0625 -0.328125q0.828125 0 1.6875 0.53125l-0.5625 1.515625q-0.609375 -0.359375 -1.203125 -0.359375q-0.546875 0 -0.96875 0.328125q-0.421875 0.328125 -0.609375 0.890625q-0.28125 0.875 -0.28125 1.921875l0 5.0625l-1.625 0zm6.228302 0l0 -13.359375l1.640625 0l0 7.625l3.890625 -3.9375l2.109375 0l-3.6875 3.59375l4.0625 6.078125l-2.015625 0l-3.203125 -4.953125l-1.15625 1.125l0 3.828125l-1.640625 0z" fill-rule="nonzero"/><path fill="#c9daf8" d="m233.21523 38.467308l0 0c0 -3.2644882 2.6463928 -5.910877 5.9108734 -5.910877l65.50107 0c1.567688 0 3.0711365 0.6227493 4.1796265 1.7312546c1.1085205 1.1085052 1.7312622 2.6119614 1.7312622 4.1796227l0 23.64281c0 3.2644844 -2.6463928 5.910877 -5.9108887 5.910877l-65.50107 0c-3.2644806 0 -5.9108734 -2.6463928 -5.9108734 -5.910877z" fill-rule="evenodd"/><path stroke="#595959" stroke-width="1.0" stroke-linejoin="round" stroke-linecap="butt" d="m233.21523 38.467308l0 0c0 -3.2644882 2.6463928 -5.910877 5.9108734 -5.910877l65.50107 0c1.567688 0 3.0711365 0.6227493 4.1796265 1.7312546c1.1085205 1.1085052 1.7312622 2.6119614 1.7312622 4.1796227l0 23.64281c0 3.2644844 -2.6463928 5.910877 -5.9108887 5.910877l-65.50107 0c-3.2644806 0 -5.9108734 -2.6463928 -5.9108734 -5.910877z" fill-rule="evenodd"/><path fill="#000000" d="m252.89249 57.20871l0 -9.671875l1.46875 0l0 1.359375q0.453125 -0.71875 1.203125 -1.140625q0.765625 -0.4375 1.71875 -0.4375q1.078125 0 1.765625 0.453125q0.6875 0.4375 0.96875 1.234375q1.15625 -1.6875 2.984375 -1.6875q1.453125 0 2.21875 0.796875q0.78125 0.796875 0.78125 2.453125l0 6.640625l-1.640625 0l0 -6.09375q0 -0.984375 -0.15625 -1.40625q-0.15625 -0.4375 -0.578125 -0.703125q-0.421875 -0.265625 -0.984375 -0.265625q-1.015625 0 -1.6875 0.6875q-0.671875 0.671875 -0.671875 2.15625l0 5.625l-1.640625 0l0 -6.28125q0 -1.09375 -0.40625 -1.640625q-0.40625 -0.546875 -1.3125 -0.546875q-0.6875 0 -1.28125 0.359375q-0.59375 0.359375 -0.859375 1.0625q-0.25 0.703125 -0.25 2.03125l0 5.015625l-1.640625 0zm21.853302 -1.1875q-0.921875 0.765625 -1.765625 1.09375q-0.828125 0.3125 -1.796875 0.3125q-1.59375 0 -2.453125 -0.78125q-0.859375 -0.78125 -0.859375 -1.984375q0 -0.71875 0.328125 -1.296875q0.328125 -0.59375 0.84375 -0.9375q0.53125 -0.359375 1.1875 -0.546875q0.46875 -0.125 1.453125 -0.25q1.984375 -0.234375 2.921875 -0.5625q0.015625 -0.34375 0.015625 -0.421875q0 -1.0 -0.46875 -1.421875q-0.625 -0.546875 -1.875 -0.546875q-1.15625 0 -1.703125 0.40625q-0.546875 0.40625 -0.8125 1.421875l-1.609375 -0.21875q0.21875 -1.015625 0.71875 -1.640625q0.5 -0.640625 1.453125 -0.984375q0.953125 -0.34375 2.1875 -0.34375q1.25 0 2.015625 0.296875q0.78125 0.28125 1.140625 0.734375q0.375 0.4375 0.515625 1.109375q0.078125 0.421875 0.078125 1.515625l0 2.1875q0 2.28125 0.109375 2.890625q0.109375 0.59375 0.40625 1.15625l-1.703125 0q-0.265625 -0.515625 -0.328125 -1.1875zm-0.140625 -3.671875q-0.890625 0.375 -2.671875 0.625q-1.015625 0.140625 -1.4375 0.328125q-0.421875 0.1875 -0.65625 0.53125q-0.21875 0.34375 -0.21875 0.78125q0 0.65625 0.5 1.09375q0.5 0.4375 1.453125 0.4375q0.9375 0 1.671875 -0.40625q0.75 -0.421875 1.09375 -1.140625q0.265625 -0.5625 0.265625 -1.640625l0 -0.609375zm4.203827 -6.609375l0 -1.890625l1.640625 0l0 1.890625l-1.640625 0zm0 11.46875l0 -9.671875l1.640625 0l0 9.671875l-1.640625 0zm4.1448364 0l0 -9.671875l1.46875 0l0 1.375q1.0625 -1.59375 3.078125 -1.59375q0.875 0 1.609375 0.3125q0.734375 0.3125 1.09375 0.828125q0.375 0.5 0.515625 1.203125q0.09375 0.453125 0.09375 1.59375l0 5.953125l-1.640625 0l0 -5.890625q0 -1.0 -0.203125 -1.484375q-0.1875 -0.5 -0.671875 -0.796875q-0.484375 -0.296875 -1.140625 -0.296875q-1.046875 0 -1.8125 0.671875q-0.75 0.65625 -0.75 2.515625l0 5.28125l-1.640625 0z" fill-rule="nonzero"/><path fill="#000000" fill-opacity="0.0" d="m134.94489 50.288715l35.93701 0" fill-rule="evenodd"/><path stroke="#595959" stroke-width="1.0" stroke-linejoin="round" stroke-linecap="butt" d="m134.94489 50.288715l29.937012 0" fill-rule="evenodd"/><path fill="#595959" stroke="#595959" stroke-width="1.0" stroke-linecap="butt" d="m164.8819 51.940445l4.538086 -1.6517296l-4.538086 -1.6517334z" fill-rule="evenodd"/><path fill="#000000" fill-opacity="0.0" d="m206.34908 50.288715l26.86615 0" fill-rule="evenodd"/><path stroke="#595959" stroke-width="1.0" stroke-linejoin="round" stroke-linecap="butt" d="m212.34908 50.288715l20.86615 0" fill-rule="evenodd"/><path fill="#595959" stroke="#595959" stroke-width="1.0" stroke-linecap="butt" d="m212.34908 48.636982l-4.538086 1.6517334l4.538086 1.6517296z" fill-rule="evenodd"/><path fill="#eeeeee" d="m737.3123 108.90026l0 0c0 -9.793266 7.939026 -17.732285 17.7323 -17.732285l0 0c4.702881 0 9.213196 1.8682175 12.538635 5.1936646c3.3254395 3.3254547 5.1936646 7.835724 5.1936646 12.53862l0 0c0 9.793274 -7.939026 17.732285 -17.7323 17.732285l0 0c-9.793274 0 -17.7323 -7.9390106 -17.7323 -17.732285z" fill-rule="evenodd"/><path stroke="#595959" stroke-width="1.0" stroke-linejoin="round" stroke-linecap="butt" d="m737.3123 108.90026l0 0c0 -9.793266 7.939026 -17.732285 17.7323 -17.732285l0 0c4.702881 0 9.213196 1.8682175 12.538635 5.1936646c3.3254395 3.3254547 5.1936646 7.835724 5.1936646 12.53862l0 0c0 9.793274 -7.939026 17.732285 -17.7323 17.732285l0 0c-9.793274 0 -17.7323 -7.9390106 -17.7323 -17.732285z" fill-rule="evenodd"/><path fill="#000000" d="m752.5911 115.82026l-1.515625 0l0 -13.359375l1.640625 0l0 4.765625q1.046875 -1.296875 2.65625 -1.296875q0.890625 0 1.6875 0.359375q0.796875 0.359375 1.3125 1.015625q0.515625 0.640625 0.796875 1.5625q0.296875 0.921875 0.296875 1.96875q0 2.484375 -1.234375 3.84375q-1.21875 1.359375 -2.953125 1.359375q-1.703125 0 -2.6875 -1.4375l0 1.21875zm-0.015625 -4.90625q0 1.734375 0.484375 2.515625q0.765625 1.265625 2.09375 1.265625q1.078125 0 1.859375 -0.9375q0.78125 -0.9375 0.78125 -2.78125q0 -1.890625 -0.75 -2.796875q-0.75 -0.90625 -1.828125 -0.90625q-1.0625 0 -1.859375 0.9375q-0.78125 0.9375 -0.78125 2.703125z" fill-rule="nonzero"/><path fill="#eeeeee" d="m737.3123 177.06299l0 0c0 -9.793259 7.939026 -17.732285 17.7323 -17.732285l0 0c4.702881 0 9.213196 1.8682251 12.538635 5.1936646c3.3254395 3.3254547 5.1936646 7.835724 5.1936646 12.53862l0 0c0 9.793274 -7.939026 17.732285 -17.7323 17.732285l0 0c-9.793274 0 -17.7323 -7.9390106 -17.7323 -17.732285z" fill-rule="evenodd"/><path stroke="#595959" stroke-width="1.0" stroke-linejoin="round" stroke-linecap="butt" d="m737.3123 177.06299l0 0c0 -9.793259 7.939026 -17.732285 17.7323 -17.732285l0 0c4.702881 0 9.213196 1.8682251 12.538635 5.1936646c3.3254395 3.3254547 5.1936646 7.835724 5.1936646 12.53862l0 0c0 9.793274 -7.939026 17.732285 -17.7323 17.732285l0 0c-9.793274 0 -17.7323 -7.9390106 -17.7323 -17.732285z" fill-rule="evenodd"/><path fill="#000000" d="m757.4036 182.79549q-0.921875 0.765625 -1.765625 1.09375q-0.828125 0.3125 -1.796875 0.3125q-1.59375 0 -2.453125 -0.78125q-0.859375 -0.78125 -0.859375 -1.984375q0 -0.71875 0.328125 -1.296875q0.328125 -0.59375 0.84375 -0.9375q0.53125 -0.359375 1.1875 -0.546875q0.46875 -0.125 1.453125 -0.25q1.984375 -0.234375 2.921875 -0.5625q0.015625 -0.34375 0.015625 -0.421875q0 -1.0 -0.46875 -1.421875q-0.625 -0.546875 -1.875 -0.546875q-1.15625 0 -1.703125 0.40625q-0.546875 0.40625 -0.8125 1.421875l-1.609375 -0.21875q0.21875 -1.015625 0.71875 -1.640625q0.5 -0.640625 1.453125 -0.984375q0.953125 -0.34375 2.1875 -0.34375q1.25 0 2.015625 0.296875q0.78125 0.28125 1.140625 0.734375q0.375 0.4375 0.515625 1.109375q0.078125 0.421875 0.078125 1.515625l0 2.1875q0 2.28125 0.109375 2.890625q0.109375 0.59375 0.40625 1.15625l-1.703125 0q-0.265625 -0.515625 -0.328125 -1.1875zm-0.140625 -3.671875q-0.890625 0.375 -2.671875 0.625q-1.015625 0.140625 -1.4375 0.328125q-0.421875 0.1875 -0.65625 0.53125q-0.21875 0.34375 -0.21875 0.78125q0 0.65625 0.5 1.09375q0.5 0.4375 1.453125 0.4375q0.9375 0 1.671875 -0.40625q0.75 -0.421875 1.09375 -1.140625q0.265625 -0.5625 0.265625 -1.640625l0 -0.609375z" fill-rule="nonzero"/><path fill="#000000" fill-opacity="0.0" d="m755.0446 126.632545l0 32.69291" fill-rule="evenodd"/><path stroke="#595959" stroke-width="1.0" stroke-linejoin="round" stroke-linecap="butt" d="m755.0446 126.632545l0 32.69291" fill-rule="evenodd"/><path fill="#b6d7a8" d="m597.68506 24.669409l0 0c0 -3.2644882 2.6463623 -5.910879 5.9108887 -5.910879l80.33569 0c1.567688 0 3.071106 0.62275124 4.1796265 1.7312565c1.1085205 1.1085052 1.7312622 2.6119614 1.7312622 4.1796227l0 23.642809c0 3.2644882 -2.6464233 5.910881 -5.9108887 5.910881l-80.33569 0l0 0c-3.2645264 0 -5.9108887 -2.6463928 -5.9108887 -5.910881z" fill-rule="evenodd"/><path stroke="#595959" stroke-width="1.0" stroke-linejoin="round" stroke-linecap="butt" d="m597.68506 24.669409l0 0c0 -3.2644882 2.6463623 -5.910879 5.9108887 -5.910879l80.33569 0c1.567688 0 3.071106 0.62275124 4.1796265 1.7312565c1.1085205 1.1085052 1.7312622 2.6119614 1.7312622 4.1796227l0 23.642809c0 3.2644882 -2.6464233 5.910881 -5.9108887 5.910881l-80.33569 0l0 0c-3.2645264 0 -5.9108887 -2.6463928 -5.9108887 -5.910881z" fill-rule="evenodd"/><path fill="#000000" d="m627.08466 43.410812l-2.96875 -9.671875l1.703125 0l1.53125 5.578125l0.578125 2.078125q0.046875 -0.15625 0.5 -2.0l1.546875 -5.65625l1.6875 0l1.4375 5.609375l0.484375 1.84375l0.5625 -1.859375l1.65625 -5.59375l1.59375 0l-3.03125 9.671875l-1.703125 0l-1.53125 -5.796875l-0.375 -1.640625l-1.953125 7.4375l-1.71875 0zm11.082336 -4.84375q0 -2.6875 1.484375 -3.96875q1.25 -1.078125 3.046875 -1.078125q2.0 0 3.265625 1.3125q1.265625 1.296875 1.265625 3.609375q0 1.859375 -0.5625 2.9375q-0.5625 1.0625 -1.640625 1.65625q-1.0625 0.59375 -2.328125 0.59375q-2.03125 0 -3.28125 -1.296875q-1.25 -1.3125 -1.25 -3.765625zm1.6875 0q0 1.859375 0.796875 2.796875q0.8125 0.921875 2.046875 0.921875q1.21875 0 2.03125 -0.921875q0.8125 -0.9375 0.8125 -2.84375q0 -1.796875 -0.8125 -2.71875q-0.8125 -0.921875 -2.03125 -0.921875q-1.234375 0 -2.046875 0.921875q-0.796875 0.90625 -0.796875 2.765625zm9.281982 4.84375l0 -9.671875l1.46875 0l0 1.46875q0.5625 -1.03125 1.03125 -1.359375q0.484375 -0.328125 1.0625 -0.328125q0.828125 0 1.6875 0.53125l-0.5625 1.515625q-0.609375 -0.359375 -1.203125 -0.359375q-0.546875 0 -0.96875 0.328125q-0.421875 0.328125 -0.609375 0.890625q-0.28125 0.875 -0.28125 1.921875l0 5.0625l-1.625 0zm6.2282715 0l0 -13.359377l1.640625 0l0 7.625002l3.890625 -3.9375l2.109375 0l-3.6875 3.59375l4.0625 6.078125l-2.015625 0l-3.203125 -4.953125l-1.15625 1.125l0 3.828125l-1.640625 0z" fill-rule="nonzero"/><path fill="#c9daf8" d="m799.64307 97.07886l0 0c0 -3.2644882 2.6463623 -5.910881 5.9108276 -5.910881l65.5011 0c1.567688 0 3.071106 0.62275696 4.1796265 1.7312622c1.1085205 1.1085052 1.7312622 2.6119537 1.7312622 4.179619l0 23.642807c0 3.2644882 -2.6464233 5.910881 -5.9108887 5.910881l-65.5011 0c-3.2644653 0 -5.9108276 -2.6463928 -5.9108276 -5.910881z" fill-rule="evenodd"/><path stroke="#595959" stroke-width="1.0" stroke-linejoin="round" stroke-linecap="butt" d="m799.64307 97.07886l0 0c0 -3.2644882 2.6463623 -5.910881 5.9108276 -5.910881l65.5011 0c1.567688 0 3.071106 0.62275696 4.1796265 1.7312622c1.1085205 1.1085052 1.7312622 2.6119537 1.7312622 4.179619l0 23.642807c0 3.2644882 -2.6464233 5.910881 -5.9108887 5.910881l-65.5011 0c-3.2644653 0 -5.9108276 -2.6463928 -5.9108276 -5.910881z" fill-rule="evenodd"/><path fill="#000000" d="m819.3203 115.82026l0 -9.671875l1.46875 0l0 1.359375q0.453125 -0.71875 1.203125 -1.140625q0.765625 -0.4375 1.71875 -0.4375q1.078125 0 1.765625 0.453125q0.6875 0.4375 0.96875 1.234375q1.15625 -1.6875 2.984375 -1.6875q1.453125 0 2.21875 0.796875q0.78125 0.796875 0.78125 2.453125l0 6.640625l-1.640625 0l0 -6.09375q0 -0.984375 -0.15625 -1.40625q-0.15625 -0.4375 -0.578125 -0.703125q-0.421875 -0.265625 -0.984375 -0.265625q-1.015625 0 -1.6875 0.6875q-0.671875 0.671875 -0.671875 2.15625l0 5.625l-1.640625 0l0 -6.28125q0 -1.09375 -0.40625 -1.640625q-0.40625 -0.546875 -1.3125 -0.546875q-0.6875 0 -1.28125 0.359375q-0.59375 0.359375 -0.859375 1.0625q-0.25 0.703125 -0.25 2.03125l0 5.015625l-1.640625 0zm21.853271 -1.1875q-0.921875 0.765625 -1.765625 1.09375q-0.828125 0.3125 -1.796875 0.3125q-1.59375 0 -2.453125 -0.78125q-0.859375 -0.78125 -0.859375 -1.984375q0 -0.71875 0.328125 -1.296875q0.328125 -0.59375 0.84375 -0.9375q0.53125 -0.359375 1.1875 -0.546875q0.46875 -0.125 1.453125 -0.25q1.984375 -0.234375 2.921875 -0.5625q0.015625 -0.34375 0.015625 -0.421875q0 -1.0 -0.46875 -1.421875q-0.625 -0.546875 -1.875 -0.546875q-1.15625 0 -1.703125 0.40625q-0.546875 0.40625 -0.8125 1.421875l-1.609375 -0.21875q0.21875 -1.015625 0.71875 -1.640625q0.5 -0.640625 1.453125 -0.984375q0.953125 -0.34375 2.1875 -0.34375q1.25 0 2.015625 0.296875q0.78125 0.28125 1.140625 0.734375q0.375 0.4375 0.515625 1.109375q0.078125 0.421875 0.078125 1.515625l0 2.1875q0 2.28125 0.109375 2.890625q0.109375 0.59375 0.40625 1.15625l-1.703125 0q-0.265625 -0.515625 -0.328125 -1.1875zm-0.140625 -3.671875q-0.890625 0.375 -2.671875 0.625q-1.015625 0.140625 -1.4375 0.328125q-0.421875 0.1875 -0.65625 0.53125q-0.21875 0.34375 -0.21875 0.78125q0 0.65625 0.5 1.09375q0.5 0.4375 1.453125 0.4375q0.9375 0 1.671875 -0.40625q0.75 -0.421875 1.09375 -1.140625q0.265625 -0.5625 0.265625 -1.640625l0 -0.609375zm4.2038574 -6.609375l0 -1.890625l1.640625 0l0 1.890625l-1.640625 0zm0 11.46875l0 -9.671875l1.640625 0l0 9.671875l-1.640625 0zm4.1448364 0l0 -9.671875l1.46875 0l0 1.375q1.0625 -1.59375 3.078125 -1.59375q0.875 0 1.609375 0.3125q0.734375 0.3125 1.09375 0.828125q0.375 0.5 0.515625 1.203125q0.09375 0.453125 0.09375 1.59375l0 5.953125l-1.640625 0l0 -5.890625q0 -1.0 -0.203125 -1.484375q-0.1875 -0.5 -0.671875 -0.796875q-0.484375 -0.296875 -1.140625 -0.296875q-1.046875 0 -1.8125 0.671875q-0.75 0.65625 -0.75 2.515625l0 5.28125l-1.640625 0z" fill-rule="nonzero"/><path fill="#000000" fill-opacity="0.0" d="m689.8425 36.490814l47.46454 0" fill-rule="evenodd"/><path stroke="#595959" stroke-width="1.0" stroke-linejoin="round" stroke-linecap="butt" d="m689.8425 36.490814l41.46454 0" fill-rule="evenodd"/><path fill="#595959" stroke="#595959" stroke-width="1.0" stroke-linecap="butt" d="m731.30707 38.142548l4.538086 -1.6517334l-4.538086 -1.6517334z" fill-rule="evenodd"/><path fill="#000000" fill-opacity="0.0" d="m772.7769 108.90026l26.86615 0" fill-rule="evenodd"/><path stroke="#595959" stroke-width="1.0" stroke-linejoin="round" stroke-linecap="butt" d="m778.7769 108.90026l20.86615 0" fill-rule="evenodd"/><path fill="#595959" stroke="#595959" stroke-width="1.0" stroke-linecap="butt" d="m778.7769 107.24853l-4.538086 1.6517334l4.538086 1.6517334z" fill-rule="evenodd"/><path fill="#eeeeee" d="m737.3123 36.490814l0 0c0 -9.79327 7.939026 -17.732285 17.7323 -17.732285l0 0c4.702881 0 9.213196 1.8682175 12.538635 5.1936665c3.3254395 3.325447 5.1936646 7.835724 5.1936646 12.538618l0 0c0 9.79327 -7.939026 17.732285 -17.7323 17.732285l0 0c-9.793274 0 -17.7323 -7.9390144 -17.7323 -17.732285z" fill-rule="evenodd"/><path stroke="#595959" stroke-width="1.0" stroke-linejoin="round" stroke-linecap="butt" d="m737.3123 36.490814l0 0c0 -9.79327 7.939026 -17.732285 17.7323 -17.732285l0 0c4.702881 0 9.213196 1.8682175 12.538635 5.1936665c3.3254395 3.325447 5.1936646 7.835724 5.1936646 12.538618l0 0c0 9.79327 -7.939026 17.732285 -17.7323 17.732285l0 0c-9.793274 0 -17.7323 -7.9390144 -17.7323 -17.732285z" fill-rule="evenodd"/><path fill="#000000" d="m757.9274 39.863937l1.609375 0.21875q-0.265625 1.65625 -1.359375 2.609375q-1.078125 0.9375 -2.671875 0.9375q-1.984375 0 -3.1875 -1.296875q-1.203125 -1.296875 -1.203125 -3.71875q0 -1.578125 0.515625 -2.75q0.515625 -1.171875 1.578125 -1.75q1.0625 -0.59375 2.3125 -0.59375q1.578125 0 2.578125 0.796875q1.0 0.796875 1.28125 2.265625l-1.59375 0.234375q-0.234375 -0.96875 -0.8125 -1.453125q-0.578125 -0.5 -1.390625 -0.5q-1.234375 0 -2.015625 0.890625q-0.78125 0.890625 -0.78125 2.8125q0 1.953125 0.75 2.84375q0.75 0.875 1.953125 0.875q0.96875 0 1.609375 -0.59375q0.65625 -0.59375 0.828125 -1.828125z" fill-rule="nonzero"/><path fill="#000000" fill-opacity="0.0" d="m755.0446 54.2231l0 36.944878" fill-rule="evenodd"/><path stroke="#595959" stroke-width="1.0" stroke-linejoin="round" stroke-linecap="butt" d="m755.0446 54.2231l0 36.944878" fill-rule="evenodd"/><path fill="#eeeeee" d="m737.31104 425.67978l0 0c0 -9.793274 7.939026 -17.73227 17.7323 -17.73227l0 0c4.702881 0 9.213135 1.8682251 12.538574 5.1936646c3.3254395 3.3254395 5.1936646 7.835724 5.1936646 12.538605l0 0c0 9.793274 -7.939026 17.7323 -17.732239 17.7323l0 0c-9.793274 0 -17.7323 -7.939026 -17.7323 -17.7323z" fill-rule="evenodd"/><path stroke="#595959" stroke-width="1.0" stroke-linejoin="round" stroke-linecap="butt" d="m737.31104 425.67978l0 0c0 -9.793274 7.939026 -17.73227 17.7323 -17.73227l0 0c4.702881 0 9.213135 1.8682251 12.538574 5.1936646c3.3254395 3.3254395 5.1936646 7.835724 5.1936646 12.538605l0 0c0 9.793274 -7.939026 17.7323 -17.732239 17.7323l0 0c-9.793274 0 -17.7323 -7.939026 -17.7323 -17.7323z" fill-rule="evenodd"/><path fill="#000000" d="m752.58984 432.5998l-1.515625 0l0 -13.359375l1.640625 0l0 4.765625q1.046875 -1.296875 2.65625 -1.296875q0.890625 0 1.6875 0.359375q0.796875 0.359375 1.3125 1.015625q0.515625 0.640625 0.796875 1.5625q0.296875 0.921875 0.296875 1.96875q0 2.484375 -1.234375 3.84375q-1.21875 1.359375 -2.953125 1.359375q-1.703125 0 -2.6875 -1.4375l0 1.21875zm-0.015625 -4.90625q0 1.734375 0.484375 2.515625q0.765625 1.265625 2.09375 1.265625q1.078125 0 1.859375 -0.9375q0.78125 -0.9375 0.78125 -2.78125q0 -1.890625 -0.75 -2.796875q-0.75 -0.90625 -1.828125 -0.90625q-1.0625 0 -1.859375 0.9375q-0.78125 0.9375 -0.78125 2.703125z" fill-rule="nonzero"/><path fill="#eeeeee" d="m737.31104 493.84253l0 0c0 -9.793274 7.939026 -17.7323 17.7323 -17.7323l0 0c4.702881 0 9.213135 1.8682251 12.538574 5.1936646c3.3254395 3.32547 5.1936646 7.835724 5.1936646 12.538635l0 0c0 9.793274 -7.939026 17.73227 -17.732239 17.73227l0 0c-9.793274 0 -17.7323 -7.9389954 -17.7323 -17.73227z" fill-rule="evenodd"/><path stroke="#595959" stroke-width="1.0" stroke-linejoin="round" stroke-linecap="butt" d="m737.31104 493.84253l0 0c0 -9.793274 7.939026 -17.7323 17.7323 -17.7323l0 0c4.702881 0 9.213135 1.8682251 12.538574 5.1936646c3.3254395 3.32547 5.1936646 7.835724 5.1936646 12.538635l0 0c0 9.793274 -7.939026 17.73227 -17.732239 17.73227l0 0c-9.793274 0 -17.7323 -7.9389954 -17.7323 -17.73227z" fill-rule="evenodd"/><path fill="#000000" d="m757.40234 499.575q-0.921875 0.765625 -1.765625 1.09375q-0.828125 0.3125 -1.796875 0.3125q-1.59375 0 -2.453125 -0.78125q-0.859375 -0.78125 -0.859375 -1.984375q0 -0.71875 0.328125 -1.296875q0.328125 -0.59375 0.84375 -0.9375q0.53125 -0.359375 1.1875 -0.546875q0.46875 -0.125 1.453125 -0.25q1.984375 -0.234375 2.921875 -0.5625q0.015625 -0.34375 0.015625 -0.421875q0 -1.0 -0.46875 -1.421875q-0.625 -0.546875 -1.875 -0.546875q-1.15625 0 -1.703125 0.40625q-0.546875 0.40625 -0.8125 1.421875l-1.609375 -0.21875q0.21875 -1.015625 0.71875 -1.640625q0.5 -0.640625 1.453125 -0.984375q0.953125 -0.34375 2.1875 -0.34375q1.25 0 2.015625 0.296875q0.78125 0.28125 1.140625 0.734375q0.375 0.4375 0.515625 1.109375q0.078125 0.421875 0.078125 1.515625l0 2.1875q0 2.28125 0.109375 2.890625q0.109375 0.59375 0.40625 1.15625l-1.703125 0q-0.265625 -0.515625 -0.328125 -1.1875zm-0.140625 -3.671875q-0.890625 0.375 -2.671875 0.625q-1.015625 0.140625 -1.4375 0.328125q-0.421875 0.1875 -0.65625 0.53125q-0.21875 0.34375 -0.21875 0.78125q0 0.65625 0.5 1.09375q0.5 0.4375 1.453125 0.4375q0.9375 0 1.671875 -0.40625q0.75 -0.421875 1.09375 -1.140625q0.265625 -0.5625 0.265625 -1.640625l0 -0.609375z" fill-rule="nonzero"/><path fill="#000000" fill-opacity="0.0" d="m755.04333 443.41208l0 32.6929" fill-rule="evenodd"/><path stroke="#595959" stroke-width="1.0" stroke-linejoin="round" stroke-linecap="butt" d="m755.04333 443.41208l0 32.6929" fill-rule="evenodd"/><path fill="#b6d7a8" d="m597.6837 341.44894l0 0c0 -3.2644958 2.6464233 -5.9108887 5.9108887 -5.9108887l80.33569 0c1.567688 0 3.071167 0.6227417 4.1796265 1.7312622c1.1085205 1.10849 1.7312622 2.611969 1.7312622 4.1796265l0 23.642792c0 3.2644958 -2.6463623 5.9108887 -5.9108887 5.9108887l-80.33569 0l0 0c-3.2644653 0 -5.9108887 -2.6463928 -5.9108887 -5.9108887z" fill-rule="evenodd"/><path stroke="#595959" stroke-width="1.0" stroke-linejoin="round" stroke-linecap="butt" d="m597.6837 341.44894l0 0c0 -3.2644958 2.6464233 -5.9108887 5.9108887 -5.9108887l80.33569 0c1.567688 0 3.071167 0.6227417 4.1796265 1.7312622c1.1085205 1.10849 1.7312622 2.611969 1.7312622 4.1796265l0 23.642792c0 3.2644958 -2.6463623 5.9108887 -5.9108887 5.9108887l-80.33569 0l0 0c-3.2644653 0 -5.9108887 -2.6463928 -5.9108887 -5.9108887z" fill-rule="evenodd"/><path fill="#000000" d="m627.0834 360.19034l-2.96875 -9.671875l1.703125 0l1.53125 5.578125l0.578125 2.078125q0.046875 -0.15625 0.5 -2.0l1.546875 -5.65625l1.6875 0l1.4375 5.609375l0.484375 1.84375l0.5625 -1.859375l1.65625 -5.59375l1.59375 0l-3.03125 9.671875l-1.703125 0l-1.53125 -5.796875l-0.375 -1.640625l-1.953125 7.4375l-1.71875 0zm11.082336 -4.84375q0 -2.6875 1.484375 -3.96875q1.25 -1.078125 3.046875 -1.078125q2.0 0 3.265625 1.3125q1.265625 1.296875 1.265625 3.609375q0 1.859375 -0.5625 2.9375q-0.5625 1.0625 -1.640625 1.65625q-1.0625 0.59375 -2.328125 0.59375q-2.03125 0 -3.28125 -1.296875q-1.25 -1.3125 -1.25 -3.765625zm1.6875 0q0 1.859375 0.796875 2.796875q0.8125 0.921875 2.046875 0.921875q1.21875 0 2.03125 -0.921875q0.8125 -0.9375 0.8125 -2.84375q0 -1.796875 -0.8125 -2.71875q-0.8125 -0.921875 -2.03125 -0.921875q-1.234375 0 -2.046875 0.921875q-0.796875 0.90625 -0.796875 2.765625zm9.281921 4.84375l0 -9.671875l1.46875 0l0 1.46875q0.5625 -1.03125 1.03125 -1.359375q0.484375 -0.328125 1.0625 -0.328125q0.828125 0 1.6875 0.53125l-0.5625 1.515625q-0.609375 -0.359375 -1.203125 -0.359375q-0.546875 0 -0.96875 0.328125q-0.421875 0.328125 -0.609375 0.890625q-0.28125 0.875 -0.28125 1.921875l0 5.0625l-1.625 0zm6.2283325 0l0 -13.359375l1.640625 0l0 7.625l3.890625 -3.9375l2.109375 0l-3.6875 3.59375l4.0625 6.078125l-2.015625 0l-3.203125 -4.953125l-1.15625 1.125l0 3.828125l-1.640625 0z" fill-rule="nonzero"/><path fill="#c9daf8" d="m857.63385 341.44894l0 0c0 -3.2644958 2.6464233 -5.9108887 5.9108887 -5.9108887l65.5011 0c1.567627 0 3.071106 0.6227417 4.1796265 1.7312622c1.1084595 1.10849 1.7312012 2.611969 1.7312012 4.1796265l0 23.642792c0 3.2644958 -2.6463623 5.9108887 -5.9108276 5.9108887l-65.5011 0c-3.2644653 0 -5.9108887 -2.6463928 -5.9108887 -5.9108887z" fill-rule="evenodd"/><path stroke="#595959" stroke-width="1.0" stroke-linejoin="round" stroke-linecap="butt" d="m857.63385 341.44894l0 0c0 -3.2644958 2.6464233 -5.9108887 5.9108887 -5.9108887l65.5011 0c1.567627 0 3.071106 0.6227417 4.1796265 1.7312622c1.1084595 1.10849 1.7312012 2.611969 1.7312012 4.1796265l0 23.642792c0 3.2644958 -2.6463623 5.9108887 -5.9108276 5.9108887l-65.5011 0c-3.2644653 0 -5.9108887 -2.6463928 -5.9108887 -5.9108887z" fill-rule="evenodd"/><path fill="#000000" d="m877.3111 360.19034l0 -9.671875l1.46875 0l0 1.359375q0.453125 -0.71875 1.203125 -1.140625q0.765625 -0.4375 1.71875 -0.4375q1.078125 0 1.765625 0.453125q0.6875 0.4375 0.96875 1.234375q1.15625 -1.6875 2.984375 -1.6875q1.453125 0 2.21875 0.796875q0.78125 0.796875 0.78125 2.453125l0 6.640625l-1.640625 0l0 -6.09375q0 -0.984375 -0.15625 -1.40625q-0.15625 -0.4375 -0.578125 -0.703125q-0.421875 -0.265625 -0.984375 -0.265625q-1.015625 0 -1.6875 0.6875q-0.671875 0.671875 -0.671875 2.15625l0 5.625l-1.640625 0l0 -6.28125q0 -1.09375 -0.40625 -1.640625q-0.40625 -0.546875 -1.3125 -0.546875q-0.6875 0 -1.28125 0.359375q-0.59375 0.359375 -0.859375 1.0625q-0.25 0.703125 -0.25 2.03125l0 5.015625l-1.640625 0zm21.853333 -1.1875q-0.921875 0.765625 -1.765625 1.09375q-0.828125 0.3125 -1.796875 0.3125q-1.59375 0 -2.453125 -0.78125q-0.859375 -0.78125 -0.859375 -1.984375q0 -0.71875 0.328125 -1.296875q0.328125 -0.59375 0.84375 -0.9375q0.53125 -0.359375 1.1875 -0.546875q0.46875 -0.125 1.453125 -0.25q1.984375 -0.234375 2.921875 -0.5625q0.015625 -0.34375 0.015625 -0.421875q0 -1.0 -0.46875 -1.421875q-0.625 -0.546875 -1.875 -0.546875q-1.15625 0 -1.703125 0.40625q-0.546875 0.40625 -0.8125 1.421875l-1.609375 -0.21875q0.21875 -1.015625 0.71875 -1.640625q0.5 -0.640625 1.453125 -0.984375q0.953125 -0.34375 2.1875 -0.34375q1.25 0 2.015625 0.296875q0.78125 0.28125 1.140625 0.734375q0.375 0.4375 0.515625 1.109375q0.078125 0.421875 0.078125 1.515625l0 2.1875q0 2.28125 0.109375 2.890625q0.109375 0.59375 0.40625 1.15625l-1.703125 0q-0.265625 -0.515625 -0.328125 -1.1875zm-0.140625 -3.671875q-0.890625 0.375 -2.671875 0.625q-1.015625 0.140625 -1.4375 0.328125q-0.421875 0.1875 -0.65625 0.53125q-0.21875 0.34375 -0.21875 0.78125q0 0.65625 0.5 1.09375q0.5 0.4375 1.453125 0.4375q0.9375 0 1.671875 -0.40625q0.75 -0.421875 1.09375 -1.140625q0.265625 -0.5625 0.265625 -1.640625l0 -0.609375zm4.2038574 -6.609375l0 -1.890625l1.640625 0l0 1.890625l-1.640625 0zm0 11.46875l0 -9.671875l1.640625 0l0 9.671875l-1.640625 0zm4.1447754 0l0 -9.671875l1.46875 0l0 1.375q1.0625 -1.59375 3.078125 -1.59375q0.875 0 1.609375 0.3125q0.734375 0.3125 1.09375 0.828125q0.375 0.5 0.515625 1.203125q0.09375 0.453125 0.09375 1.59375l0 5.953125l-1.640625 0l0 -5.890625q0 -1.0 -0.203125 -1.484375q-0.1875 -0.5 -0.671875 -0.796875q-0.484375 -0.296875 -1.140625 -0.296875q-1.046875 0 -1.8125 0.671875q-0.75 0.65625 -0.75 2.515625l0 5.28125l-1.640625 0z" fill-rule="nonzero"/><path fill="#000000" fill-opacity="0.0" d="m689.8412 353.27036l47.4646 0" fill-rule="evenodd"/><path stroke="#595959" stroke-width="1.0" stroke-linejoin="round" stroke-linecap="butt" d="m689.8412 353.27036l41.4646 0" fill-rule="evenodd"/><path fill="#595959" stroke="#595959" stroke-width="1.0" stroke-linecap="butt" d="m731.3058 354.9221l4.538086 -1.6517334l-4.538086 -1.6517334z" fill-rule="evenodd"/><path fill="#000000" fill-opacity="0.0" d="m837.74146 353.27036l19.905518 0" fill-rule="evenodd"/><path stroke="#595959" stroke-width="1.0" stroke-linejoin="round" stroke-linecap="butt" d="m843.74146 353.27036l13.905518 0" fill-rule="evenodd"/><path fill="#595959" stroke="#595959" stroke-width="1.0" stroke-linecap="butt" d="m843.74146 351.61862l-4.538086 1.6517334l4.538086 1.6517334z" fill-rule="evenodd"/><path fill="#eeeeee" d="m737.31104 353.27036l0 0c0 -9.793274 7.939026 -17.7323 17.7323 -17.7323l0 0c4.702881 0 9.213135 1.8682251 12.538574 5.1936646c3.3254395 3.3254395 5.1936646 7.835724 5.1936646 12.538635l0 0c0 9.793243 -7.939026 17.73227 -17.732239 17.73227l0 0c-9.793274 0 -17.7323 -7.939026 -17.7323 -17.73227z" fill-rule="evenodd"/><path stroke="#595959" stroke-width="1.0" stroke-linejoin="round" stroke-linecap="butt" d="m737.31104 353.27036l0 0c0 -9.793274 7.939026 -17.7323 17.7323 -17.7323l0 0c4.702881 0 9.213135 1.8682251 12.538574 5.1936646c3.3254395 3.3254395 5.1936646 7.835724 5.1936646 12.538635l0 0c0 9.793243 -7.939026 17.73227 -17.732239 17.73227l0 0c-9.793274 0 -17.7323 -7.939026 -17.7323 -17.73227z" fill-rule="evenodd"/><path fill="#000000" d="m757.92615 356.64346l1.609375 0.21875q-0.265625 1.65625 -1.359375 2.609375q-1.078125 0.9375 -2.671875 0.9375q-1.984375 0 -3.1875 -1.296875q-1.203125 -1.296875 -1.203125 -3.71875q0 -1.578125 0.515625 -2.75q0.515625 -1.171875 1.578125 -1.75q1.0625 -0.59375 2.3125 -0.59375q1.578125 0 2.578125 0.796875q1.0 0.796875 1.28125 2.265625l-1.59375 0.234375q-0.234375 -0.96875 -0.8125 -1.453125q-0.578125 -0.5 -1.390625 -0.5q-1.234375 0 -2.015625 0.890625q-0.78125 0.890625 -0.78125 2.8125q0 1.953125 0.75 2.84375q0.75 0.875 1.953125 0.875q0.96875 0 1.609375 -0.59375q0.65625 -0.59375 0.828125 -1.828125z" fill-rule="nonzero"/><path fill="#000000" fill-opacity="0.0" d="m755.04333 371.00262l0 36.944885" fill-rule="evenodd"/><path stroke="#595959" stroke-width="1.0" stroke-linejoin="round" stroke-linecap="butt" d="m755.04333 371.00262l0 36.944885" fill-rule="evenodd"/><path fill="#eeeeee" d="m802.2769 353.27036l0 0c0 -9.793274 7.939026 -17.7323 17.7323 -17.7323l0 0c4.702881 0 9.213135 1.8682251 12.538574 5.1936646c3.3254395 3.3254395 5.1936646 7.835724 5.1936646 12.538635l0 0c0 9.793243 -7.939026 17.73227 -17.732239 17.73227l0 0c-9.793274 0 -17.7323 -7.939026 -17.7323 -17.73227z" fill-rule="evenodd"/><path stroke="#595959" stroke-width="1.0" stroke-linejoin="round" stroke-linecap="butt" d="m802.2769 353.27036l0 0c0 -9.793274 7.939026 -17.7323 17.7323 -17.7323l0 0c4.702881 0 9.213135 1.8682251 12.538574 5.1936646c3.3254395 3.3254395 5.1936646 7.835724 5.1936646 12.538635l0 0c0 9.793243 -7.939026 17.73227 -17.732239 17.73227l0 0c-9.793274 0 -17.7323 -7.939026 -17.7323 -17.73227z" fill-rule="evenodd"/><path fill="#000000" d="m822.32135 360.19034l0 -1.21875q-0.90625 1.4375 -2.703125 1.4375q-1.15625 0 -2.125 -0.640625q-0.96875 -0.640625 -1.5 -1.78125q-0.53125 -1.140625 -0.53125 -2.625q0 -1.453125 0.484375 -2.625q0.484375 -1.1875 1.4375 -1.8125q0.96875 -0.625 2.171875 -0.625q0.875 0 1.546875 0.375q0.6875 0.359375 1.109375 0.953125l0 -4.796875l1.640625 0l0 13.359375l-1.53125 0zm-5.171875 -4.828125q0 1.859375 0.78125 2.78125q0.78125 0.921875 1.84375 0.921875q1.078125 0 1.828125 -0.875q0.75 -0.890625 0.75 -2.6875q0 -1.984375 -0.765625 -2.90625q-0.765625 -0.9375 -1.890625 -0.9375q-1.078125 0 -1.8125 0.890625q-0.734375 0.890625 -0.734375 2.8125z" fill-rule="nonzero"/><path fill="#000000" fill-opacity="0.0" d="m767.5819 413.14117l39.874023 -47.338593" fill-rule="evenodd"/><path stroke="#595959" stroke-width="1.0" stroke-linejoin="round" stroke-linecap="butt" d="m767.5819 413.14117l39.874023 -47.338593" fill-rule="evenodd"/><path fill="#eeeeee" d="m153.35957 428.30447l0 0c0 -9.793274 7.939026 -17.7323 17.732285 -17.7323l0 0c4.702896 0 9.213181 1.8682251 12.53862 5.1936646c3.3254547 3.3254395 5.1936646 7.835724 5.1936646 12.538635l0 0c0 9.793243 -7.9390106 17.73227 -17.732285 17.73227l0 0c-9.793259 0 -17.732285 -7.939026 -17.732285 -17.73227z" fill-rule="evenodd"/><path stroke="#595959" stroke-width="1.0" stroke-linejoin="round" stroke-linecap="butt" d="m153.35957 428.30447l0 0c0 -9.793274 7.939026 -17.7323 17.732285 -17.7323l0 0c4.702896 0 9.213181 1.8682251 12.53862 5.1936646c3.3254547 3.3254395 5.1936646 7.835724 5.1936646 12.538635l0 0c0 9.793243 -7.9390106 17.73227 -17.732285 17.73227l0 0c-9.793259 0 -17.732285 -7.939026 -17.732285 -17.73227z" fill-rule="evenodd"/><path fill="#000000" d="m168.63838 435.22446l-1.515625 0l0 -13.359375l1.640625 0l0 4.765625q1.046875 -1.296875 2.65625 -1.296875q0.890625 0 1.6875 0.359375q0.796875 0.359375 1.3125 1.015625q0.515625 0.640625 0.796875 1.5625q0.296875 0.921875 0.296875 1.96875q0 2.484375 -1.234375 3.84375q-1.21875 1.359375 -2.953125 1.359375q-1.703125 0 -2.6875 -1.4375l0 1.21875zm-0.015625 -4.90625q0 1.734375 0.484375 2.515625q0.765625 1.265625 2.09375 1.265625q1.078125 0 1.859375 -0.9375q0.78125 -0.9375 0.78125 -2.78125q0 -1.890625 -0.75 -2.796875q-0.75 -0.90625 -1.828125 -0.90625q-1.0625 0 -1.859375 0.9375q-0.78125 0.9375 -0.78125 2.703125z" fill-rule="nonzero"/><path fill="#eeeeee" d="m153.35957 496.4672l0 0c0 -9.793274 7.939026 -17.7323 17.732285 -17.7323l0 0c4.702896 0 9.213181 1.8682251 12.53862 5.193695c3.3254547 3.3254395 5.1936646 7.835724 5.1936646 12.538605l0 0c0 9.793274 -7.9390106 17.73227 -17.732285 17.73227l0 0c-9.793259 0 -17.732285 -7.9389954 -17.732285 -17.73227z" fill-rule="evenodd"/><path stroke="#595959" stroke-width="1.0" stroke-linejoin="round" stroke-linecap="butt" d="m153.35957 496.4672l0 0c0 -9.793274 7.939026 -17.7323 17.732285 -17.7323l0 0c4.702896 0 9.213181 1.8682251 12.53862 5.193695c3.3254547 3.3254395 5.1936646 7.835724 5.1936646 12.538605l0 0c0 9.793274 -7.9390106 17.73227 -17.732285 17.73227l0 0c-9.793259 0 -17.732285 -7.9389954 -17.732285 -17.73227z" fill-rule="evenodd"/><path fill="#000000" d="m173.45088 502.19968q-0.921875 0.765625 -1.765625 1.09375q-0.828125 0.3125 -1.796875 0.3125q-1.59375 0 -2.453125 -0.78125q-0.859375 -0.78125 -0.859375 -1.984375q0 -0.71875 0.328125 -1.296875q0.328125 -0.59375 0.84375 -0.9375q0.53125 -0.359375 1.1875 -0.546875q0.46875 -0.125 1.453125 -0.25q1.984375 -0.234375 2.921875 -0.5625q0.015625 -0.34375 0.015625 -0.421875q0 -1.0 -0.46875 -1.421875q-0.625 -0.546875 -1.875 -0.546875q-1.15625 0 -1.703125 0.40625q-0.546875 0.40625 -0.8125 1.421875l-1.609375 -0.21875q0.21875 -1.015625 0.71875 -1.640625q0.5 -0.640625 1.453125 -0.984375q0.953125 -0.34375 2.1875 -0.34375q1.25 0 2.015625 0.296875q0.78125 0.28125 1.140625 0.734375q0.375 0.4375 0.515625 1.109375q0.078125 0.421875 0.078125 1.515625l0 2.1875q0 2.28125 0.109375 2.890625q0.109375 0.59375 0.40625 1.15625l-1.703125 0q-0.265625 -0.515625 -0.328125 -1.1875zm-0.140625 -3.671875q-0.890625 0.375 -2.671875 0.625q-1.015625 0.140625 -1.4375 0.328125q-0.421875 0.1875 -0.65625 0.53125q-0.21875 0.34375 -0.21875 0.78125q0 0.65625 0.5 1.09375q0.5 0.4375 1.453125 0.4375q0.9375 0 1.671875 -0.40625q0.75 -0.421875 1.09375 -1.140625q0.265625 -0.5625 0.265625 -1.640625l0 -0.609375z" fill-rule="nonzero"/><path fill="#000000" fill-opacity="0.0" d="m171.09186 446.03674l0 32.6929" fill-rule="evenodd"/><path stroke="#595959" stroke-width="1.0" stroke-linejoin="round" stroke-linecap="butt" d="m171.09186 446.03674l0 32.6929" fill-rule="evenodd"/><path fill="#b6d7a8" d="m26.225721 275.9109l0 0c0 -3.2644958 2.646391 -5.9108887 5.910879 -5.9108887l80.335724 0c1.5676651 0 3.0711212 0.6227417 4.1796265 1.7312622c1.1085052 1.10849 1.7312546 2.611969 1.7312546 4.1796265l0 23.642792c0 3.2644958 -2.6463928 5.9108887 -5.910881 5.9108887l-80.335724 0l0 0c-3.2644882 0 -5.910879 -2.6463928 -5.910879 -5.9108887z" fill-rule="evenodd"/><path stroke="#595959" stroke-width="1.0" stroke-linejoin="round" stroke-linecap="butt" d="m26.225721 275.9109l0 0c0 -3.2644958 2.646391 -5.9108887 5.910879 -5.9108887l80.335724 0c1.5676651 0 3.0711212 0.6227417 4.1796265 1.7312622c1.1085052 1.10849 1.7312546 2.611969 1.7312546 4.1796265l0 23.642792c0 3.2644958 -2.6463928 5.9108887 -5.910881 5.9108887l-80.335724 0l0 0c-3.2644882 0 -5.910879 -2.6463928 -5.910879 -5.9108887z" fill-rule="evenodd"/><path fill="#000000" d="m55.625355 294.65228l-2.96875 -9.671875l1.703125 0l1.53125 5.578125l0.578125 2.078125q0.046875 -0.15625 0.5 -2.0l1.546875 -5.65625l1.6875 0l1.4375 5.609375l0.484375 1.84375l0.5625 -1.859375l1.6562538 -5.59375l1.59375 0l-3.0312538 9.671875l-1.703125 0l-1.53125 -5.796875l-0.375 -1.640625l-1.953125 7.4375l-1.71875 0zm11.082325 -4.84375q0 -2.6875 1.484375 -3.96875q1.25 -1.078125 3.046875 -1.078125q2.0 0 3.265625 1.3125q1.265625 1.296875 1.265625 3.609375q0 1.859375 -0.5625 2.9375q-0.5625 1.0625 -1.640625 1.65625q-1.0625 0.59375 -2.328125 0.59375q-2.03125 0 -3.28125 -1.296875q-1.25 -1.3125 -1.25 -3.765625zm1.6875 0q0 1.859375 0.796875 2.796875q0.8125 0.921875 2.046875 0.921875q1.21875 0 2.03125 -0.921875q0.8125 -0.9375 0.8125 -2.84375q0 -1.796875 -0.8125 -2.71875q-0.8125 -0.921875 -2.03125 -0.921875q-1.234375 0 -2.046875 0.921875q-0.796875 0.90625 -0.796875 2.765625zm9.281967 4.84375l0 -9.671875l1.46875 0l0 1.46875q0.5625 -1.03125 1.03125 -1.359375q0.484375 -0.328125 1.0625 -0.328125q0.828125 0 1.6875 0.53125l-0.5625 1.515625q-0.609375 -0.359375 -1.203125 -0.359375q-0.546875 0 -0.96875 0.328125q-0.421875 0.328125 -0.609375 0.890625q-0.28125 0.875 -0.28125 1.921875l0 5.0625l-1.625 0zm6.228302 0l0 -13.359375l1.640625 0l0 7.625l3.890625 -3.9375l2.109375 0l-3.6875 3.59375l4.0625 6.078125l-2.015625 0l-3.203125 -4.953125l-1.15625 1.125l0 3.828125l-1.640625 0z" fill-rule="nonzero"/><path fill="#c9daf8" d="m273.6824 344.0736l0 0c0 -3.2644958 2.6463928 -5.9108887 5.9108887 -5.9108887l65.50107 0c1.5676575 0 3.0711365 0.6227722 4.1796265 1.7312622c1.1085205 1.1085205 1.7312622 2.611969 1.7312622 4.1796265l0 23.642822c0 3.2644653 -2.6463928 5.910858 -5.9108887 5.910858l-65.50107 0c-3.2644958 0 -5.9108887 -2.6463928 -5.9108887 -5.910858z" fill-rule="evenodd"/><path stroke="#595959" stroke-width="1.0" stroke-linejoin="round" stroke-linecap="butt" d="m273.6824 344.0736l0 0c0 -3.2644958 2.6463928 -5.9108887 5.9108887 -5.9108887l65.50107 0c1.5676575 0 3.0711365 0.6227722 4.1796265 1.7312622c1.1085205 1.1085205 1.7312622 2.611969 1.7312622 4.1796265l0 23.642822c0 3.2644653 -2.6463928 5.910858 -5.9108887 5.910858l-65.50107 0c-3.2644958 0 -5.9108887 -2.6463928 -5.9108887 -5.910858z" fill-rule="evenodd"/><path fill="#000000" d="m293.35968 362.815l0 -9.671875l1.46875 0l0 1.359375q0.453125 -0.71875 1.203125 -1.140625q0.765625 -0.4375 1.71875 -0.4375q1.078125 0 1.765625 0.453125q0.6875 0.4375 0.96875 1.234375q1.15625 -1.6875 2.984375 -1.6875q1.453125 0 2.21875 0.796875q0.78125 0.796875 0.78125 2.453125l0 6.640625l-1.640625 0l0 -6.09375q0 -0.984375 -0.15625 -1.40625q-0.15625 -0.4375 -0.578125 -0.703125q-0.421875 -0.265625 -0.984375 -0.265625q-1.015625 0 -1.6875 0.6875q-0.671875 0.671875 -0.671875 2.15625l0 5.625l-1.640625 0l0 -6.28125q0 -1.09375 -0.40625 -1.640625q-0.40625 -0.546875 -1.3125 -0.546875q-0.6875 0 -1.28125 0.359375q-0.59375 0.359375 -0.859375 1.0625q-0.25 0.703125 -0.25 2.03125l0 5.015625l-1.640625 0zm21.853302 -1.1875q-0.921875 0.765625 -1.765625 1.09375q-0.828125 0.3125 -1.796875 0.3125q-1.59375 0 -2.453125 -0.78125q-0.859375 -0.78125 -0.859375 -1.984375q0 -0.71875 0.328125 -1.296875q0.328125 -0.59375 0.84375 -0.9375q0.53125 -0.359375 1.1875 -0.546875q0.46875 -0.125 1.453125 -0.25q1.984375 -0.234375 2.921875 -0.5625q0.015625 -0.34375 0.015625 -0.421875q0 -1.0 -0.46875 -1.421875q-0.625 -0.546875 -1.875 -0.546875q-1.15625 0 -1.703125 0.40625q-0.546875 0.40625 -0.8125 1.421875l-1.609375 -0.21875q0.21875 -1.015625 0.71875 -1.640625q0.5 -0.640625 1.453125 -0.984375q0.953125 -0.34375 2.1875 -0.34375q1.25 0 2.015625 0.296875q0.78125 0.28125 1.140625 0.734375q0.375 0.4375 0.515625 1.109375q0.078125 0.421875 0.078125 1.515625l0 2.1875q0 2.28125 0.109375 2.890625q0.109375 0.59375 0.40625 1.15625l-1.703125 0q-0.265625 -0.515625 -0.328125 -1.1875zm-0.140625 -3.671875q-0.890625 0.375 -2.671875 0.625q-1.015625 0.140625 -1.4375 0.328125q-0.421875 0.1875 -0.65625 0.53125q-0.21875 0.34375 -0.21875 0.78125q0 0.65625 0.5 1.09375q0.5 0.4375 1.453125 0.4375q0.9375 0 1.671875 -0.40625q0.75 -0.421875 1.09375 -1.140625q0.265625 -0.5625 0.265625 -1.640625l0 -0.609375zm4.203827 -6.609375l0 -1.890625l1.640625 0l0 1.890625l-1.640625 0zm0 11.46875l0 -9.671875l1.640625 0l0 9.671875l-1.640625 0zm4.1448364 0l0 -9.671875l1.46875 0l0 1.375q1.0625 -1.59375 3.078125 -1.59375q0.875 0 1.609375 0.3125q0.734375 0.3125 1.09375 0.828125q0.375 0.5 0.515625 1.203125q0.09375 0.453125 0.09375 1.59375l0 5.953125l-1.640625 0l0 -5.890625q0 -1.0 -0.203125 -1.484375q-0.1875 -0.5 -0.671875 -0.796875q-0.484375 -0.296875 -1.140625 -0.296875q-1.046875 0 -1.8125 0.671875q-0.75 0.65625 -0.75 2.515625l0 5.28125l-1.640625 0z" fill-rule="nonzero"/><path fill="#000000" fill-opacity="0.0" d="m118.3832 287.73227l34.992134 0" fill-rule="evenodd"/><path stroke="#595959" stroke-width="1.0" stroke-linejoin="round" stroke-linecap="butt" d="m118.3832 287.73227l28.992134 0" fill-rule="evenodd"/><path fill="#595959" stroke="#595959" stroke-width="1.0" stroke-linecap="butt" d="m147.37534 289.384l4.538086 -1.6517334l-4.538086 -1.6517334z" fill-rule="evenodd"/><path fill="#000000" fill-opacity="0.0" d="m253.79002 355.89502l19.905502 0" fill-rule="evenodd"/><path stroke="#595959" stroke-width="1.0" stroke-linejoin="round" stroke-linecap="butt" d="m259.79004 355.89502l13.905487 0" fill-rule="evenodd"/><path fill="#595959" stroke="#595959" stroke-width="1.0" stroke-linecap="butt" d="m259.79004 354.2433l-4.5381165 1.6517334l4.5381165 1.6517334z" fill-rule="evenodd"/><path fill="#eeeeee" d="m153.35957 355.89502l0 0c0 -9.793274 7.939026 -17.7323 17.732285 -17.7323l0 0c4.702896 0 9.213181 1.8682251 12.53862 5.1936646c3.3254547 3.32547 5.1936646 7.835724 5.1936646 12.538635l0 0c0 9.793274 -7.9390106 17.73227 -17.732285 17.73227l0 0c-9.793259 0 -17.732285 -7.9389954 -17.732285 -17.73227z" fill-rule="evenodd"/><path stroke="#595959" stroke-width="1.0" stroke-linejoin="round" stroke-linecap="butt" d="m153.35957 355.89502l0 0c0 -9.793274 7.939026 -17.7323 17.732285 -17.7323l0 0c4.702896 0 9.213181 1.8682251 12.53862 5.1936646c3.3254547 3.32547 5.1936646 7.835724 5.1936646 12.538635l0 0c0 9.793274 -7.9390106 17.73227 -17.732285 17.73227l0 0c-9.793259 0 -17.732285 -7.9389954 -17.732285 -17.73227z" fill-rule="evenodd"/><path fill="#000000" d="m173.97467 359.26813l1.609375 0.21875q-0.265625 1.65625 -1.359375 2.609375q-1.078125 0.9375 -2.671875 0.9375q-1.984375 0 -3.1875 -1.296875q-1.203125 -1.296875 -1.203125 -3.71875q0 -1.578125 0.515625 -2.75q0.515625 -1.171875 1.578125 -1.75q1.0625 -0.59375 2.3125 -0.59375q1.578125 0 2.578125 0.796875q1.0 0.796875 1.28125 2.265625l-1.59375 0.234375q-0.234375 -0.96875 -0.8125 -1.453125q-0.578125 -0.5 -1.390625 -0.5q-1.234375 0 -2.015625 0.890625q-0.78125 0.890625 -0.78125 2.8125q0 1.953125 0.75 2.84375q0.75 0.875 1.953125 0.875q0.96875 0 1.609375 -0.59375q0.65625 -0.59375 0.828125 -1.828125z" fill-rule="nonzero"/><path fill="#000000" fill-opacity="0.0" d="m171.09186 373.6273l0 36.944885" fill-rule="evenodd"/><path stroke="#595959" stroke-width="1.0" stroke-linejoin="round" stroke-linecap="butt" d="m171.09186 373.6273l0 36.944885" fill-rule="evenodd"/><path fill="#eeeeee" d="m218.32545 355.89502l0 0c0 -9.793274 7.939026 -17.7323 17.732285 -17.7323l0 0c4.702896 0 9.213181 1.8682251 12.53862 5.1936646c3.3254547 3.32547 5.1936646 7.835724 5.1936646 12.538635l0 0c0 9.793274 -7.9390106 17.73227 -17.732285 17.73227l0 0c-9.793259 0 -17.732285 -7.9389954 -17.732285 -17.73227z" fill-rule="evenodd"/><path stroke="#595959" stroke-width="1.0" stroke-linejoin="round" stroke-linecap="butt" d="m218.32545 355.89502l0 0c0 -9.793274 7.939026 -17.7323 17.732285 -17.7323l0 0c4.702896 0 9.213181 1.8682251 12.53862 5.1936646c3.3254547 3.32547 5.1936646 7.835724 5.1936646 12.538635l0 0c0 9.793274 -7.9390106 17.73227 -17.732285 17.73227l0 0c-9.793259 0 -17.732285 -7.9389954 -17.732285 -17.73227z" fill-rule="evenodd"/><path fill="#000000" d="m238.36989 362.815l0 -1.21875q-0.90625 1.4375 -2.703125 1.4375q-1.15625 0 -2.125 -0.640625q-0.96875 -0.640625 -1.5 -1.78125q-0.53125 -1.140625 -0.53125 -2.625q0 -1.453125 0.484375 -2.625q0.484375 -1.1875 1.4375 -1.8125q0.96875 -0.625 2.171875 -0.625q0.875 0 1.546875 0.375q0.6875 0.359375 1.109375 0.953125l0 -4.796875l1.640625 0l0 13.359375l-1.53125 0zm-5.171875 -4.828125q0 1.859375 0.78125 2.78125q0.78125 0.921875 1.84375 0.921875q1.078125 0 1.828125 -0.875q0.75 -0.890625 0.75 -2.6875q0 -1.984375 -0.765625 -2.90625q-0.765625 -0.9375 -1.890625 -0.9375q-1.078125 0 -1.8125 0.890625q-0.734375 0.890625 -0.734375 2.8125z" fill-rule="nonzero"/><path fill="#000000" fill-opacity="0.0" d="m183.63048 415.76584l39.874023 -47.338562" fill-rule="evenodd"/><path stroke="#595959" stroke-width="1.0" stroke-linejoin="round" stroke-linecap="butt" d="m183.63048 415.76584l39.874023 -47.338562" fill-rule="evenodd"/><path fill="#eeeeee" d="m153.35957 287.73227l0 0c0 -9.793243 7.939026 -17.73227 17.732285 -17.73227l0 0c4.702896 0 9.213181 1.8682251 12.53862 5.1936646c3.3254547 3.3254395 5.1936646 7.835724 5.1936646 12.538605l0 0c0 9.793274 -7.9390106 17.7323 -17.732285 17.7323l0 0c-9.793259 0 -17.732285 -7.939026 -17.732285 -17.7323z" fill-rule="evenodd"/><path stroke="#595959" stroke-width="1.0" stroke-linejoin="round" stroke-linecap="butt" d="m153.35957 287.73227l0 0c0 -9.793243 7.939026 -17.73227 17.732285 -17.73227l0 0c4.702896 0 9.213181 1.8682251 12.53862 5.1936646c3.3254547 3.3254395 5.1936646 7.835724 5.1936646 12.538605l0 0c0 9.793274 -7.9390106 17.7323 -17.732285 17.7323l0 0c-9.793259 0 -17.732285 -7.939026 -17.732285 -17.7323z" fill-rule="evenodd"/><path fill="#000000" d="m173.76338 291.5429l1.6875 0.203125q-0.40625 1.484375 -1.484375 2.3125q-1.078125 0.8125 -2.765625 0.8125q-2.125 0 -3.375 -1.296875q-1.234375 -1.3125 -1.234375 -3.671875q0 -2.453125 1.25 -3.796875q1.265625 -1.34375 3.265625 -1.34375q1.9375 0 3.15625 1.328125q1.234375 1.3125 1.234375 3.703125q0 0.15625 0 0.4375l-7.21875 0q0.09375 1.59375 0.90625 2.453125q0.8125 0.84375 2.015625 0.84375q0.90625 0 1.546875 -0.46875q0.640625 -0.484375 1.015625 -1.515625zm-5.390625 -2.65625l5.40625 0q-0.109375 -1.21875 -0.625 -1.828125q-0.78125 -0.953125 -2.03125 -0.953125q-1.125 0 -1.90625 0.765625q-0.765625 0.75 -0.84375 2.015625z" fill-rule="nonzero"/><path fill="#000000" fill-opacity="0.0" d="m171.09186 338.16272l0 -32.6929" fill-rule="evenodd"/><path stroke="#595959" stroke-width="1.0" stroke-linejoin="round" stroke-linecap="butt" d="m171.09186 338.16272l0 -32.6929" fill-rule="evenodd"/><path fill="#000000" fill-opacity="0.0" d="m223.51912 343.35638l-39.87401 -43.08661" fill-rule="evenodd"/><path stroke="#595959" stroke-width="1.0" stroke-linejoin="round" stroke-linecap="butt" d="m223.51912 343.35638l-39.87401 -43.08661" fill-rule="evenodd"/><path fill="#595959" d="m416.0971 87.44882l70.62991 0l0 -19.220474l38.44095 38.44094l-38.44095 38.44094l0 -19.220467l-70.62991 0z" fill-rule="evenodd"/><path stroke="#595959" stroke-width="1.0" stroke-linejoin="round" stroke-linecap="butt" d="m416.0971 87.44882l70.62991 0l0 -19.220474l38.44095 38.44094l-38.44095 38.44094l0 -19.220467l-70.62991 0z" fill-rule="evenodd"/><path fill="#595959" d="m774.2651 220.84877l0 44.99214l19.220459 0l-38.440918 38.440918l-38.440918 -38.440918l19.220459 0l0 -44.99214z" fill-rule="evenodd"/><path stroke="#595959" stroke-width="1.0" stroke-linejoin="round" stroke-linecap="butt" d="m774.2651 220.84877l0 44.99214l19.220459 0l-38.440918 38.440918l-38.440918 -38.440918l19.220459 0l0 -44.99214z" fill-rule="evenodd"/><path fill="#595959" d="m528.88055 393.19946l-70.62988 0l0 19.22049l-38.44095 -38.44095l38.44095 -38.44095l0 19.22049l70.62988 0z" fill-rule="evenodd"/><path stroke="#595959" stroke-width="1.0" stroke-linejoin="round" stroke-linecap="butt" d="m528.88055 393.19946l-70.62988 0l0 19.22049l-38.44095 -38.44095l38.44095 -38.44095l0 19.22049l70.62988 0z" fill-rule="evenodd"/></g></svg>